<?xml version="1.0" encoding="UTF-8"?>
<svg id="Layer_2" data-name="Layer 2" xmlns="http://www.w3.org/2000/svg" viewBox="0 0 169.31 169.31">
  <defs>
    <style>
      .cls-1 {
        fill: #99f;
      }

      .cls-2 {
        fill: #00005b;
      }
    </style>
  </defs>
  <g id="Layer_1-2" data-name="Layer 1">
    <g>
      <rect class="cls-2" width="169.31" height="169.31" rx="41.62" ry="41.62"/>
      <g>
        <path class="cls-1" d="M25.49,118.94l25.42-69.67,15.41-.06,26.13,69.73h-17.89l-4.09-12.66-23.24-.15-4.16,12.81h-17.58ZM51.48,92.95h14.68l-7.49-23.55-7.19,23.55Z"/>
        <path class="cls-1" d="M143.82,98.15h-32.1c1.15,9.63,12.34,11.77,19.66,7.28,1.48-.91,2.3-2.11,3.72-3l7.12,8.4c-2.98,4.44-8.77,7.55-13.98,8.58-23.7,4.66-39.01-14.82-31.41-37.22,7.31-21.55,40.38-21.56,45.87,1.03,1.15,4.74,1.03,10.05,1.12,14.93ZM127.92,88.06c.64-6.47-3.64-10.37-10.11-9.04-3.77.78-5.96,5.49-6.1,9.04h16.21Z"/>
      </g>
    </g>
  </g>
</svg>