<?xml version="1.0" encoding="UTF-8"?>
<svg id="Layer_2" data-name="Layer 2" xmlns="http://www.w3.org/2000/svg" viewBox="0 0 169.31 169.31">
  <defs>
    <style>
      .cls-1 {
        fill: #300;
      }

      .cls-2 {
        fill: #fd9800;
      }
    </style>
  </defs>
  <g id="Layer_1-2" data-name="Layer 1">
    <g>
      <rect class="cls-1" width="169.31" height="169.31" rx="41.62" ry="41.62"/>
      <g>
        <path class="cls-2" d="M128.4,55.9c.07.56.07,1.83,0,2.4-1.19,9.89-18.16,9.99-18.16-1.28,0-11.29,16.93-11.38,18.16-1.11Z"/>
        <path class="cls-2" d="M104.4,120.76l-17.83.03-5.4-17.2-17.95-.06-4.81,17.02-.47.39-16.65-.05-.43-.43,20.97-69.08c.34-.2.71-.24,1.1-.27,6.2-.51,13.08.4,19.35,0l1.08.46,21.24,68.32-.21.88ZM78.42,90.15l-6.42-22.78-6.08,22.78h12.49Z"/>
        <path class="cls-2" d="M111.58,69.81l15.2-.04c.38,0,.96.25,1.08.64l.04,49.64-.64.9-16.1-.09-.35-.33-.04-49.81c-.01-.5.38-.76.82-.9Z"/>
      </g>
    </g>
  </g>
</svg>