<?xml version="1.0" encoding="UTF-8"?>
<svg id="Layer_2" data-name="Layer 2" xmlns="http://www.w3.org/2000/svg" viewBox="0 0 81.72 128.11">
  <g id="Graphic_elemetns" data-name="Graphic elemetns">
    <path d="M35.69,2.34L2.13,37.21c-2.92,3.04-2.83,7.87.21,10.8,3.04,2.92,7.87,2.83,10.8-.21l20.31-21.1-.55,93.73v.05c0,4.2,3.39,7.61,7.59,7.64,4.22.03,7.66-3.37,7.68-7.59l.55-93.78,19.81,21c2.89,3.07,7.73,3.21,10.8.31,1.59-1.5,2.4-3.53,2.4-5.56,0-1.88-.69-3.76-2.08-5.24L46.74,2.4C45.31.88,43.32.01,41.23,0c-2.09-.01-4.09.84-5.54,2.34Z"/>
  </g>
</svg>