<?xml version="1.0" encoding="UTF-8"?>
<svg id="Layer_2" data-name="Layer 2" xmlns="http://www.w3.org/2000/svg" viewBox="0 0 169.31 169.31">
  <defs>
    <style>
      .cls-1 {
        fill: #141414;
      }

      .cls-2 {
        fill: #fff;
      }
    </style>
  </defs>
  <g id="Layer_1-2" data-name="Layer 1">
    <g>
      <rect class="cls-1" width="169.31" height="169.31" rx="41.62" ry="41.62"/>
      <g>
        <path class="cls-2" d="M75.2,55.01c2.13,5.54,3.57,11.13,7.2,15.95,5.56,7.39,13.2,10.24,21.71,13.02.4.28.39,1.04,0,1.31-5.53,2.07-11.07,3.52-15.84,7.15-8.11,6.16-9.1,12.05-12.66,20.84-.28.69-.45,1.5-1.44.91-.43-.25-2.99-8.03-3.52-9.28-3.25-7.61-8.86-13.16-16.47-16.39-2.94-1.25-6.14-2.02-9.04-3.34l-.2-.65.59-.71c8.18-2.57,15.49-5.42,20.96-12.32,3.83-4.83,5.37-10.52,7.49-16.19.24-.43.8-.42,1.23-.3Z"/>
        <path class="cls-2" d="M109.57,36.85c1.54,5.18,3.66,9.75,8.62,12.4,1.84.98,3.84,1.37,5.69,2.22.74.34.61.62-.09.96-1.12.55-2.76.86-3.96,1.38-4.12,1.77-6.87,4.53-8.64,8.64-.36.83-1.18,3.86-1.5,4.26-.19.23-.34.28-.63.22s-1.71-4.68-2.06-5.41c-1.42-2.96-4.27-5.86-7.23-7.28-1.21-.58-4.69-1.43-5.41-2.01-.18-.15-.19-.37-.13-.55.08-.24,4.04-1.42,4.69-1.71,5.92-2.58,8.36-7.12,10.05-13.11h.61Z"/>
        <path class="cls-2" d="M109.56,102.37c1.84,6.03,4.26,10.51,10.27,13.09.84.36,3.82,1.14,4.26,1.5.23.19.28.34.22.63-.07.31-5.06,1.87-5.98,2.35-5,2.6-7.18,7.17-8.72,12.36-.04.2-.43.17-.55.13-.33-.11-1.98-5.36-2.56-6.41-2.66-4.81-7.08-6.82-12.15-8.3-.2-.04-.17-.43-.13-.55.09-.29,4.9-1.81,5.7-2.2,5.1-2.51,7.58-7.37,9.05-12.62h.6Z"/>
      </g>
    </g>
  </g>
</svg>