<?xml version="1.0" encoding="UTF-8"?>
<svg id="Layer_2" data-name="Layer 2" xmlns="http://www.w3.org/2000/svg" viewBox="0 0 83.39 83.39">
  <defs>
    <style>
      .cls-1 {
        fill: #111421;
      }
    </style>
  </defs>
  <g id="Layer_1-2" data-name="Layer 1">
    <g>
      <path class="cls-1" d="M41.69,83.39C18.7,83.39,0,64.69,0,41.7S18.7,0,41.69,0s41.7,18.7,41.7,41.7-18.7,41.69-41.7,41.69ZM41.69,4.49C21.18,4.49,4.49,21.18,4.49,41.7s16.69,37.21,37.21,37.21,37.21-16.69,37.21-37.21S62.21,4.49,41.69,4.49Z"/>
      <path class="cls-1" d="M57.52,34.83c-11.39,0-11.41,11.35-11.41,11.41,0,0-.78,11.37,11.41,11.37,0,0,9.18.52,10.09-6.7.08-.64-.41-1.21-1.06-1.21h-3.19c-.46,0-.88.29-1.01.74-.28.94-1.26,2.46-4.66,2.46,0,0-4.42.29-5.13-3.95-.11-.64.41-1.21,1.05-1.21h13.25c.57,0,1.04-.45,1.06-1.02.1-3.05-.45-11.88-10.41-11.88ZM53.21,43.76c-.42,0-.72-.41-.59-.81.42-1.31,1.66-3.76,5.02-3.76s4.27,2.58,4.47,3.87c.06.37-.24.7-.62.7h-8.28ZM39.52,41.11c-.37-.12-.43-.63-.08-.81,1.27-.65,2.77-2.06,2.77-5.12,0-5.31-3.7-7.91-8.4-7.91h-14.68c-.43,0-.78.35-.78.78v28.16c0,.43.35.78.78.78h14.68s9.44.29,9.44-8.78c0,0,.32-5.76-3.73-7.1ZM25.17,33.11c0-.31.25-.56.56-.56h8.08s2.1,0,2.1,3.09-1.23,3.54-2.63,3.54h-7.55c-.31,0-.56-.25-.56-.56v-5.51ZM33.38,51.71h-7.65c-.31,0-.56-.25-.56-.56v-6.83c0-.31.25-.56.56-.56h8.08s3.14-.03,3.12,4.09c0,3.47-2.33,3.83-3.56,3.86ZM51.13,28.46v2.54c0,.31.25.56.56.56h11.15c.31,0,.56-.25.56-.56v-2.54c0-.31-.25-.56-.56-.56h-11.15c-.31,0-.56.25-.56.56Z"/>
    </g>
  </g>
</svg>