<?xml version="1.0" encoding="UTF-8"?>
<svg id="Layer_2" data-name="Layer 2" xmlns="http://www.w3.org/2000/svg" viewBox="0 0 20.97 7.25">
  <defs>
    <style>
      .cls-1 {
        fill: #bed630;
      }

      .cls-2 {
        fill: #fff;
      }
    </style>
  </defs>
  <g id="Layer_1-2" data-name="Layer 1">
    <g>
      <g>
        <path class="cls-2" d="M5.52.61c-.29-.2-.64-.36-1.03-.46-.39-.1-.81-.15-1.26-.15-.36,0-.7.03-1.02.1-.32.06-.62.16-.89.29-.27.13-.5.3-.7.49-.2.2-.35.43-.46.69-.11.26-.16.55-.16.88,0,.28.04.53.12.76.08.23.18.43.32.61.14.18.31.34.5.47.2.13.41.24.65.33.24.09.5.15.78.2.28.04.57.06.86.06.45,0,.87-.05,1.26-.15.39-.1.73-.25,1.03-.46.16-.11.31-.24.43-.39V1c-.12-.15-.27-.28-.43-.39ZM3.94,3.01c-.04.15-.1.27-.18.36-.08.09-.16.15-.25.2-.09.04-.18.06-.27.06-.19,0-.37-.09-.54-.27-.17-.18-.25-.48-.25-.91,0-.22.02-.41.07-.56.04-.15.1-.28.18-.37.07-.1.15-.17.25-.21.09-.04.19-.06.28-.06s.19.02.28.06c.09.04.17.11.25.2.08.09.14.22.18.37s.07.34.07.56-.02.41-.07.56Z"/>
        <path class="cls-2" d="M5.95.22v.79c.1.12.19.24.26.38.17.31.25.66.25,1.07s-.08.76-.25,1.07c-.07.13-.16.26-.26.37v.78h2.49V.22h-2.49ZM11.6.75c-.08-.17-.2-.3-.34-.4-.15-.1-.31-.17-.49-.22-.18-.05-.37-.07-.57-.07-.41,0-.79.08-1.13.23l-.57,1.85s.07-.06.15-.09c.08-.03.17-.04.26-.04.1,0,.18.04.25.09.07.06.1.16.1.29v2.27h2.49V1.34c0-.23-.04-.43-.13-.59ZM14.16.19c-.24-.09-.5-.13-.78-.13-.2,0-.39.02-.59.06s-.38.1-.56.17l-.5,1.85s.07-.06.15-.09c.08-.03.17-.04.26-.04.1,0,.18.04.25.09.07.06.1.16.1.29v2.27h2.16V.48c-.13-.13-.3-.23-.49-.3Z"/>
        <path class="cls-2" d="M19.25.09c-.15-.03-.32-.04-.5-.02-.18.02-.36.06-.53.13-.17.07-.32.18-.45.31-.13.14-.21.31-.26.51l-.38,1.9v.04s0,0,0-.01c.05-.09.15-.16.3-.21.15-.06.33-.09.53-.1.2-.01.4,0,.6.05.2.04.37.12.51.24l.55-2.67c-.09-.07-.21-.12-.37-.15ZM14.65.22v.27s.07.07.1.11c.15.19.23.44.23.75v3.33h2.16V.22h-2.49Z"/>
        <path class="cls-2" d="M19.62,4.67v-1.04h.31c.57,0,1.04.47,1.04,1.04h0s-1.35,0-1.35,0Z"/>
      </g>
      <g>
        <path class="cls-1" d="M9.61,4.93h.71l.43,1.34.3-1.34h.75l.27,1.35.42-1.35h.71l-.76,2.27h-.71l-.32-1.35-.32,1.35h-.71l-.76-2.27Z"/>
        <path class="cls-1" d="M13.12,6.09c0-.76.52-1.2,1.16-1.2s1.16.44,1.16,1.2-.5,1.16-1.16,1.16-1.17-.41-1.17-1.16ZM14.69,6.08c0-.36-.17-.54-.41-.54-.26,0-.41.19-.41.54s.16.52.41.52.41-.18.41-.52Z"/>
        <path class="cls-1" d="M15.64,4.93h.75v.47h0c.1-.31.3-.52.6-.52.09,0,.15,0,.19.03v.8c-.1-.06-.23-.09-.34-.09-.22,0-.42.1-.46.39v1.19h-.75v-2.27Z"/>
        <path class="cls-1" d="M18.14,6.27v.93h-.75v-3.44h.75v2.02l.63-.85h.79l-.78,1.07.86,1.21h-.82l-.67-.93Z"/>
      </g>
    </g>
  </g>
</svg>