<?xml version="1.0" encoding="UTF-8"?>
<svg id="Layer_2" data-name="Layer 2" xmlns="http://www.w3.org/2000/svg" viewBox="0 0 82.99 82.99">
  <defs>
    <style>
      .cls-1 {
        fill: #111421;
      }
    </style>
  </defs>
  <g id="Layer_1-2" data-name="Layer 1">
    <path class="cls-1" d="M41.49,82.99C18.61,82.99,0,64.37,0,41.49S18.61,0,41.49,0s41.49,18.61,41.49,41.49-18.61,41.49-41.49,41.49ZM41.49,3.94C20.79,3.94,3.94,20.79,3.94,41.49s16.85,37.55,37.55,37.55,37.55-16.85,37.55-37.55S62.2,3.94,41.49,3.94ZM55.48,24.66c-1.7,0-3.07,1.37-3.07,3.07s1.37,3.07,3.07,3.07,3.07-1.37,3.07-3.07-1.37-3.07-3.07-3.07ZM41.83,28.6c-7.11,0-12.9,5.79-12.9,12.9s5.79,12.9,12.9,12.9,12.9-5.79,12.9-12.9-5.79-12.9-12.9-12.9ZM41.83,49.76c-4.56,0-8.26-3.71-8.26-8.26s3.71-8.26,8.26-8.26,8.26,3.71,8.26,8.26-3.71,8.26-8.26,8.26ZM67.86,30.77c0-8.69-7.04-15.73-15.73-15.73h-20.76c-8.69,0-15.73,7.04-15.73,15.73v20.76c0,8.69,7.04,15.73,15.73,15.73h20.76c8.69,0,15.73-7.04,15.73-15.73v-20.76ZM62.93,51.54c0,5.97-4.84,10.8-10.81,10.8h-20.76c-5.97,0-10.81-4.84-10.81-10.8v-20.76c0-5.97,4.84-10.8,10.81-10.8h20.76c5.97,0,10.81,4.84,10.81,10.8v20.76Z"/>
  </g>
</svg>