<?xml version="1.0" encoding="UTF-8"?>
<svg id="Layer_2" data-name="Layer 2" xmlns="http://www.w3.org/2000/svg" viewBox="0 0 83.39 83.39">
  <defs>
    <style>
      .cls-1 {
        fill: #111421;
      }
    </style>
  </defs>
  <g id="Layer_1-2" data-name="Layer 1">
    <g>
      <g>
        <path class="cls-1" d="M41.7,83.39C18.7,83.39,0,64.69,0,41.7S18.7,0,41.7,0s41.7,18.7,41.7,41.7-18.7,41.69-41.7,41.69ZM41.7,4.49C21.18,4.49,4.49,21.18,4.49,41.7s16.69,37.21,37.21,37.21,37.21-16.69,37.21-37.21S62.21,4.49,41.7,4.49Z"/>
        <path class="cls-1" d="M65.27,44.87v15.57c0,.38-.31.7-.7.7h-8.04c-.38,0-.7-.31-.7-.7v-14.48c0-3.81-1.36-6.41-4.78-6.41-2.61,0-4.15,1.75-4.84,3.45-.25.61-.31,1.45-.31,2.3v15.14c0,.38-.31.7-.7.7h-8.03c-.39,0-.7-.31-.7-.7.02-3.86.1-22.56.02-26.96,0-.39.31-.7.7-.7h8.02c.38,0,.7.31.7.7v3.32s-.05.06-.06.09h.06v-.09c1.25-1.93,3.49-4.69,8.5-4.69,6.2,0,10.86,4.05,10.86,12.76h0ZM22.54,61.13h8.03c.38,0,.7-.31.7-.7v-26.97c0-.38-.31-.7-.7-.7h-8.03c-.38,0-.7.31-.7.7v26.97c0,.38.31.7.7.7Z"/>
      </g>
      <circle class="cls-1" cx="26.27" cy="24.12" r="5.05"/>
    </g>
  </g>
</svg>