<?xml version="1.0" encoding="UTF-8"?>
<svg id="Layer_2" data-name="Layer 2" xmlns="http://www.w3.org/2000/svg" viewBox="0 0 169.31 169.31">
  <defs>
    <style>
      .cls-1 {
        fill: #001e36;
      }

      .cls-2 {
        fill: #31a8ff;
      }
    </style>
  </defs>
  <g id="Layer_1-2" data-name="Layer 1">
    <g>
      <rect class="cls-1" width="169.31" height="169.31" rx="41.62" ry="41.62"/>
      <g>
        <path class="cls-2" d="M130.87,105.34c-1.48,15.98-23.44,17.26-35.18,13.22-.76-.26-3.23-1.2-3.75-1.62-.28-.22-.33-.67-.32-1,.02-1.45,2.05-9.16,2.63-10.77.11-.3.15-.62.45-.81.87-.43,2.3.68,3.14,1.03,3.51,1.45,12.2,4.12,15.37,1.39,1.1-.95,1.16-2.74.3-3.86-1.34-1.73-7.53-3.4-9.83-4.46-8.22-3.79-13.33-10.66-9.88-19.97,4.51-12.19,21.54-13.29,32.1-9.5.43.15,2.48.97,2.63,1.21.22.34.17.8.13,1.19-.27,2.3-1.79,7.41-2.54,9.77-.09.29-.2.91-.43,1.06-.34.19-.61.16-.97.09-.88-.17-2.62-1.2-3.7-1.56-2.58-.86-8.56-2.08-10.75-.08-.99.91-1.04,2.66-.13,3.64,1.72,1.85,8.74,3.72,11.45,5.1,4.92,2.51,8.75,6.82,9.28,12.52.08.91.08,2.53,0,3.44Z"/>
        <path class="cls-2" d="M55.47,95.21v23.61c0,.53-.78.61-1.17.64-3.82.33-11.02.32-14.84,0-.43-.04-.98-.02-1.09-.53l.02-68.05c.33-.57.91-.56,1.5-.67,7.83-1.58,21.89-1.93,29.72-.54,13.12,2.32,21.04,11.48,19.29,25.16-2.15,16.83-18.64,21.72-33.43,20.38ZM55.47,81.46c4.9.5,11.08.47,14.46-3.71,2.38-2.95,2.71-7.81.76-11.07-2.89-4.85-10.37-4.47-15.22-3.86v18.64Z"/>
      </g>
    </g>
  </g>
</svg>