<?xml version="1.0" encoding="UTF-8"?>
<svg id="Layer_2" data-name="Layer 2" xmlns="http://www.w3.org/2000/svg" viewBox="0 0 82.99 82.99">
  <defs>
    <style>
      .cls-1 {
        fill-rule: evenodd;
      }

      .cls-1, .cls-2 {
        fill: #111421;
      }
    </style>
  </defs>
  <g id="Layer_1-2" data-name="Layer 1">
    <g>
      <path class="cls-2" d="M41.49,82.99C18.61,82.99,0,64.37,0,41.49S18.61,0,41.49,0s41.49,18.61,41.49,41.49-18.61,41.49-41.49,41.49ZM41.49,4.46C21.07,4.46,4.46,21.07,4.46,41.49s16.61,37.04,37.04,37.04,37.04-16.61,37.04-37.04S61.92,4.46,41.49,4.46Z"/>
      <g>
        <path class="cls-1" d="M43.45,14.48c-13.81,0-25.05,11.24-25.05,25.05,0,4.86,1.38,9.53,4,13.58l-3.81,8.38c-.35.77-.22,1.68.33,2.32.42.49,1.03.77,1.66.77.19,0,.39-.03.58-.08l10.49-2.88c3.62,1.94,7.68,2.95,11.8,2.95,13.81,0,25.05-11.24,25.05-25.05s-11.24-25.05-25.05-25.05ZM43.45,60.21c-3.66,0-7.26-.97-10.41-2.82-.34-.2-.72-.3-1.1-.3-.19,0-.39.03-.58.08l-6.85,1.88,2.39-5.26c.32-.71.24-1.55-.22-2.18-2.55-3.54-3.9-7.71-3.9-12.08,0-11.4,9.28-20.68,20.68-20.68s20.68,9.28,20.68,20.68-9.28,20.68-20.68,20.68Z"/>
        <path class="cls-1" d="M53.08,43.29c-1.05-.63-2.41-1.33-3.65-.82-.95.39-1.55,1.87-2.17,2.63-.32.39-.69.45-1.18.25-3.56-1.42-6.29-3.79-8.25-7.07-.33-.51-.27-.91.13-1.38.59-.7,1.34-1.49,1.5-2.43.16-.94-.28-2.04-.67-2.88-.5-1.07-1.05-2.6-2.13-3.2-.99-.56-2.29-.25-3.16.47-1.52,1.24-2.25,3.17-2.23,5.09,0,.55.07,1.09.2,1.61.31,1.27.89,2.45,1.55,3.57.5.85,1.04,1.67,1.62,2.46,1.9,2.59,4.27,4.83,7.01,6.51,1.37.84,2.85,1.58,4.37,2.08,1.71.57,3.24,1.16,5.09.8,1.94-.37,3.85-1.57,4.62-3.43.23-.55.34-1.17.21-1.75-.26-1.21-1.9-1.93-2.87-2.51Z"/>
      </g>
    </g>
  </g>
</svg>