<?xml version="1.0" encoding="UTF-8"?>
<svg id="Layer_1" xmlns="http://www.w3.org/2000/svg" version="1.1" viewBox="0 0 500 500">
  <!-- Generator: Adobe Illustrator 29.0.1, SVG Export Plug-In . SVG Version: 2.1.0 Build 192)  -->
  <defs>
    <style>
      .st0 {
        fill: #e4004d;
      }

      .st1 {
        fill: #fff;
      }
    </style>
  </defs>
  <path class="st0" d="M0,0h500v500H0V0Z"/>
  <path class="st1" d="M69.6,450.3l8.3-18.8c2.2-.3,4.2-.6,6.2-.7,2-.2,3.9-.2,5.8-.2,4,0,7.7.4,11,1.1,3.3.8,6.4,2,9.1,3.6,2.8,1.6,5.3,3.7,7.6,6.2,2.3,2.5,4.4,5.4,6.4,8.9h18.2l-39.1-83.9h-12.6l-39.1,83.9h18.2ZM96.8,388.4l15.1,33.3c-2.2-1.6-5-2.8-8.4-3.7-3.4-.9-7.4-1.3-12-1.3s-4.7.1-7.3.4l12.6-28.7ZM190.4,450.3l38.7-83.9h-19.2l-25.4,58.1-25.3-58.1h-19.5l38.1,83.9h12.6ZM285.7,453.5c6.6,0,12.8-1.1,18.5-3.4,5.7-2.3,10.6-5.5,14.7-9.5,4.2-4.1,7.4-8.9,9.8-14.4,2.4-5.5,3.5-11.5,3.5-18s-1.2-12.3-3.5-17.9c-2.4-5.5-5.6-10.3-9.8-14.3-4.2-4-9.1-7.2-14.7-9.5-5.7-2.3-11.8-3.4-18.5-3.4s-12.8,1.1-18.5,3.4c-5.7,2.3-10.6,5.4-14.7,9.5-4.2,4-7.4,8.8-9.8,14.3-2.4,5.5-3.5,11.5-3.5,17.9s1.2,12.5,3.5,18c2.4,5.5,5.6,10.3,9.8,14.4,4.2,4.1,9.1,7.3,14.7,9.5,5.7,2.3,11.8,3.4,18.5,3.4ZM285.7,437.9c-4.2,0-8-.7-11.4-2.2-3.5-1.5-6.5-3.5-9.1-6.2-2.6-2.6-4.6-5.8-6-9.5-1.4-3.7-2.2-7.7-2.2-12s.7-8.2,2.2-11.7,3.4-6.7,6-9.3c2.6-2.6,5.6-4.6,9.1-6.1,3.5-1.5,7.3-2.2,11.4-2.2s8,.7,11.5,2.2c3.5,1.5,6.5,3.5,9.1,6.1,2.6,2.6,4.6,5.7,6,9.3,1.4,3.6,2.2,7.5,2.2,11.7s-.7,8.4-2.2,12c-1.4,3.6-3.4,6.8-6,9.4-2.6,2.6-5.6,4.7-9.1,6.2-3.5,1.5-7.3,2.2-11.5,2.2ZM358.2,366.4v83.9h17.3v-53.4l45.2,53.4h13.4v-83.9h-17.3v53.4l-45.2-53.4h-13.4Z"/>
</svg>