<?xml version="1.0" encoding="UTF-8"?>
<svg id="Layer_2" data-name="Layer 2" xmlns="http://www.w3.org/2000/svg" viewBox="0 0 382.7 90.4">
  <defs>
    <style>
      .cls-1 {
        fill: #fff;
      }
    </style>
  </defs>
  <g id="Layer_1-2" data-name="Layer 1">
    <path class="cls-1" d="M18.2,87.2l8.3-18.8c2.2-.3,4.2-.6,6.2-.7,2-.2,3.9-.2,5.8-.2,4,0,7.7.4,11,1.1,3.3.8,6.4,2,9.1,3.6,2.8,1.6,5.3,3.7,7.6,6.2,2.3,2.5,4.4,5.4,6.4,8.9h18.2L51.7,3.4h-12.6L0,87.3h18.2v-.1ZM45.4,25.3l15.1,33.3c-2.2-1.6-5-2.8-8.4-3.7-3.4-.9-7.4-1.3-12-1.3s-4.7.1-7.3.4l12.6-28.7h0ZM139,87.2L177.7,3.3h-19.2l-25.4,58.1L107.8,3.3h-19.5l38.1,83.9h12.6ZM234.3,90.4c6.6,0,12.8-1.1,18.5-3.4s10.6-5.5,14.7-9.5c4.2-4.1,7.4-8.9,9.8-14.4s3.5-11.5,3.5-18-1.2-12.3-3.5-17.9c-2.4-5.5-5.6-10.3-9.8-14.3-4.2-4-9.1-7.2-14.7-9.5-5.7-2.3-11.8-3.4-18.5-3.4s-12.8,1.1-18.5,3.4-10.6,5.4-14.7,9.5c-4.2,4-7.4,8.8-9.8,14.3-2.4,5.5-3.5,11.5-3.5,17.9s1.2,12.5,3.5,18c2.4,5.5,5.6,10.3,9.8,14.4s9.1,7.3,14.7,9.5c5.7,2.3,11.8,3.4,18.5,3.4ZM234.3,74.8c-4.2,0-8-.7-11.4-2.2-3.5-1.5-6.5-3.5-9.1-6.2-2.6-2.6-4.6-5.8-6-9.5s-2.2-7.7-2.2-12,.7-8.2,2.2-11.7,3.4-6.7,6-9.3c2.6-2.6,5.6-4.6,9.1-6.1s7.3-2.2,11.4-2.2,8,.7,11.5,2.2,6.5,3.5,9.1,6.1,4.6,5.7,6,9.3c1.4,3.6,2.2,7.5,2.2,11.7s-.7,8.4-2.2,12c-1.4,3.6-3.4,6.8-6,9.4s-5.6,4.7-9.1,6.2-7.3,2.2-11.5,2.2v.1ZM306.8,3.3v83.9h17.3v-53.4l45.2,53.4h13.4V3.3h-17.3v53.4L320.2,3.3h-13.4Z"/>
  </g>
</svg>