<?xml version="1.0" encoding="UTF-8"?>
<svg id="Layer_2" data-name="Layer 2" xmlns="http://www.w3.org/2000/svg" viewBox="0 0 356 108.5">
  <defs>
    <style>
      .cls-1 {
        fill: #fff;
      }
    </style>
  </defs>
  <g id="Calque_1" data-name="Calque 1">
    <g>
      <g>
        <path class="cls-1" d="M150.17,1.46h-.91s-21.21.01-21.21.01v48.82l22.11.03c13.81,0,25-10.94,25-24.43S163.97,1.46,150.17,1.46ZM150.17,43.13h-14.17V8.63h13.88l.29.02c9.74,0,17.64,7.72,17.64,17.24s-7.9,17.24-17.64,17.24Z"/>
        <polygon class="cls-1" points="330.08 21.65 330.08 8.42 356 8.42 356 1.47 322.25 1.47 322.25 50.3 356 50.3 356 43.34 330.08 43.34 330.08 28.59 346.66 28.59 346.66 21.65 330.08 21.65"/>
        <path class="cls-1" d="M219.06,1.66l-.08-.19h-9.3l-19.39,48.41-.17.42h7.73l3.97-9.89h25.02l3.89,9.69.08.19h7.75L219.06,1.66ZM204.65,33.37l9.69-24.15,9.69,24.15h-19.38Z"/>
        <path class="cls-1" d="M278.47,51.77c-14.27,0-25.89-11.61-25.89-25.88S264.19,0,278.47,0c7.02,0,13.6,2.77,18.51,7.79l-5.36,5.25c-3.49-3.57-8.16-5.53-13.14-5.53-10.14,0-18.38,8.24-18.38,18.38s8.24,18.38,18.38,18.38c8.31,0,15.42-5.56,17.65-13.24h-19.01v-7.3h27.19v3.78c-.84,13.6-12.19,24.26-25.83,24.26Z"/>
        <path class="cls-1" d="M39,38.62c-3.37,3.5-8.05,5.72-13.14,5.72-10.01,0-18.47-8.47-18.47-18.48S15.84,7.45,25.86,7.45c5.08,0,9.74,2.19,13.11,5.65l5.28-5.28C39.57,3.05,33.06.07,25.86.07,11.6.07,0,11.64,0,25.85s11.6,25.85,25.86,25.85c7.21,0,13.74-3,18.42-7.81l-5.28-5.28Z"/>
        <path class="cls-1" d="M83.8.07c-14.26,0-25.86,11.56-25.86,25.78s11.6,25.85,25.86,25.85,25.77-11.6,25.77-25.85S98.01.07,83.8.07ZM83.8,44.33c-10.01,0-18.47-8.47-18.47-18.48s8.46-18.4,18.47-18.4,18.39,8.43,18.39,18.4-8.42,18.48-18.39,18.48Z"/>
      </g>
      <g>
        <path class="cls-1" d="M116.02,107.84v-27.04h6.41c8.22,0,10.4,3,10.4,7.64,0,4.19-1.77,7.73-10.07,7.73h-2.84v11.67h-3.9ZM123.05,94.69c5.01,0,5.59-2.42,5.59-6.33,0-3.33-.94-6.08-6.08-6.08h-2.63v12.41h3.12Z"/>
        <path class="cls-1" d="M155.02,99.17h-9.9l-3.25,8.67h-1.85l10.4-27.45h1.89l9.74,27.45h-3.95l-3.08-8.67ZM154.49,97.69l-4.11-11.75h-.29l-4.44,11.75h8.84Z"/>
        <path class="cls-1" d="M184.99,94.32c6.04.33,5.71,3.53,5.88,9.04.08,2.55,1.27,3.33,4.11,3.53v1.19c-.29,0-1.07.04-1.36.04-5.79,0-6.74-1.6-7.03-5.34l-.25-3.41c-.25-3.41-1.6-4.31-5.84-4.31h-2.55v12.78h-3.9v-27.04h6.66c8.22,0,10.23,2.59,10.23,6.74s-1.97,5.67-5.96,6.53v.25ZM180.71,93.58c5.18,0,6.04-1.85,6.04-5.92,0-3.49-1.4-5.38-6.33-5.38h-2.47v11.3h2.75Z"/>
        <path class="cls-1" d="M206.11,107.84v-27.04h3.74v27.04h-3.74Z"/>
        <path class="cls-1" d="M238.79,86.47c-1.15-3.25-3.99-5.22-7.44-4.81-2.14.25-4.15,1.77-4.15,4.97,0,2.96,2.38,3.9,6.78,5.38,3.74,1.27,7.6,2.55,7.6,7.64,0,4.07-2.38,8.84-9.21,8.84-3.7,0-8.55-2.14-8.55-8.51h1.6c0,5.14,3.7,7.03,7.32,7.03,4.11,0,5.79-2.79,5.79-5.22,0-3.04-2.18-4.15-7.15-5.92-3.74-1.32-7.68-2.42-7.68-7.48s3.9-8.14,8.3-8.26c4.15-.12,7.32,2.75,8.18,5.71l-1.4.62Z"/>
      </g>
    </g>
  </g>
</svg>