<?xml version="1.0" encoding="UTF-8"?>
<svg id="Layer_2" data-name="Layer 2" xmlns="http://www.w3.org/2000/svg" viewBox="0 0 358.98 124.18">
  <defs>
    <style>
      .cls-1 {
        fill: #fff;
      }
    </style>
  </defs>
  <g id="Layer_1-2" data-name="Layer 1">
    <g>
      <g>
        <path class="cls-1" d="M94.52,10.52c-5.04-3.48-10.91-6.11-17.58-7.88-6.69-1.76-13.88-2.64-21.59-2.64-6.15,0-11.99.55-17.53,1.66-5.53,1.11-10.6,2.79-15.18,5.04-4.6,2.26-8.59,5.07-11.99,8.43-3.4,3.36-6.03,7.28-7.87,11.74-1.85,4.48-2.77,9.5-2.77,15.08,0,4.74.66,9.07,1.97,12.97,1.31,3.89,3.16,7.37,5.53,10.45,2.37,3.07,5.25,5.76,8.62,8.05,3.35,2.29,7.09,4.19,11.19,5.72,4.09,1.51,8.52,2.64,13.28,3.38,4.74.74,9.68,1.1,14.76,1.1,7.71,0,14.9-.86,21.59-2.57,6.67-1.73,12.54-4.33,17.58-7.81,2.81-1.94,5.28-4.15,7.4-6.63V17.18c-2.1-2.49-4.58-4.72-7.4-6.66ZM67.45,51.54c-.76,2.59-1.8,4.65-3.08,6.18-1.3,1.53-2.72,2.65-4.25,3.36-1.53.71-3.07,1.06-4.6,1.06-3.3,0-6.35-1.53-9.18-4.6-2.84-3.07-4.25-8.24-4.25-15.55,0-3.78.37-6.96,1.15-9.54.76-2.6,1.77-4.72,3-6.37,1.23-1.65,2.65-2.83,4.24-3.54,1.59-.71,3.22-1.06,4.86-1.06s3.24.35,4.77,1.06c1.53.71,2.95,1.85,4.25,3.44,1.29,1.59,2.32,3.71,3.08,6.37s1.15,5.86,1.15,9.64-.39,6.94-1.15,9.54Z"/>
        <path class="cls-1" d="M101.92,3.69v13.5c1.72,1.97,3.19,4.11,4.46,6.43,2.88,5.25,4.32,11.36,4.32,18.33s-1.43,13.05-4.32,18.25c-1.27,2.31-2.75,4.44-4.46,6.41v13.33h42.55V3.69h-42.55ZM198.64,12.85c-1.43-2.83-3.4-5.11-5.9-6.82-2.51-1.73-5.32-2.99-8.43-3.82-3.11-.82-6.39-1.23-9.84-1.23-6.97,0-13.45,1.33-19.43,3.94l-9.84,31.61c.32-.5,1.17-.99,2.52-1.47,1.35-.5,2.84-.7,4.49-.62,1.63.08,3.06.62,4.25,1.59,1.18.98,1.78,2.67,1.78,5.04v38.86h42.55V23c0-3.94-.72-7.32-2.16-10.15ZM242.42,3.2c-4.14-1.47-8.59-2.22-13.35-2.22-3.35,0-6.74.34-10.15.99-3.4.66-6.58,1.63-9.53,2.95l-8.6,31.61c.32-.5,1.17-.99,2.52-1.47,1.35-.5,2.84-.7,4.49-.62,1.63.08,3.06.62,4.24,1.59,1.19.98,1.8,2.67,1.8,5.04v38.86h36.91V8.3c-2.29-2.25-5.07-3.94-8.32-5.09Z"/>
        <path class="cls-1" d="M329.58,1.54c-2.63-.54-5.49-.66-8.62-.38-3.11.29-6.15,1.05-9.1,2.28-2.95,1.23-5.51,3.02-7.68,5.35-2.18,2.35-3.63,5.27-4.37,8.79l-6.53,32.49-.12.6c.04-.07.08-.12.12-.19.94-1.47,2.65-2.68,5.17-3.62,2.63-.99,5.66-1.58,9.1-1.78,3.44-.21,6.86.05,10.27.79,3.4.74,6.3,2.09,8.67,4.06l9.35-45.75c-1.57-1.23-3.66-2.1-6.27-2.64ZM250.74,3.69v4.61c.63.59,1.22,1.23,1.77,1.92,2.57,3.19,3.87,7.46,3.87,12.79v56.94h36.91V3.69h-42.55Z"/>
        <path class="cls-1" d="M335.86,79.94v-17.8h5.32c9.83,0,17.8,7.97,17.8,17.8h0s-23.12,0-23.12,0Z"/>
      </g>
      <g>
        <path class="cls-1" d="M164.58,84.46h12.08l7.3,22.86,5.19-22.86h12.81l4.54,23.1,7.13-23.1h12.08l-12.97,38.91h-12.08l-5.51-23.1-5.43,23.1h-12.08l-13.05-38.91Z"/>
        <path class="cls-1" d="M224.58,104.24c0-12.97,8.92-20.59,19.94-20.59s19.86,7.54,19.86,20.59-8.51,19.94-19.78,19.94-20.02-6.97-20.02-19.94ZM251.58,104.07c0-6.16-2.92-9.24-7.05-9.24-4.38,0-7.05,3.24-7.05,9.24s2.76,8.92,7.05,8.92,7.05-3,7.05-8.92Z"/>
        <path class="cls-1" d="M267.71,84.46h12.81v8.03h.16c1.7-5.27,5.11-8.84,10.3-8.84,1.54,0,2.51.16,3.32.57v13.62c-1.78-1.05-3.89-1.54-5.84-1.54-3.81,0-7.21,1.7-7.94,6.73v20.35h-12.81v-38.91Z"/>
        <path class="cls-1" d="M310.6,107.4v15.97h-12.81v-58.94h12.81v34.62l10.7-14.59h13.46l-13.38,18.24,14.75,20.67h-14.03l-11.51-15.97Z"/>
      </g>
    </g>
  </g>
</svg>