<?xml version="1.0" encoding="UTF-8"?>
<svg id="Layer_2" data-name="Layer 2" xmlns="http://www.w3.org/2000/svg" viewBox="0 0 375.75 137.66">
  <defs>
    <style>
      .cls-1 {
        fill: #fff;
      }
    </style>
  </defs>
  <g id="Layer_1-2" data-name="Layer 1">
    <g>
      <path d="M352.63,87.74v-17.8h5.32c9.83,0,17.8,7.97,17.8,17.8h0s-23.12,0-23.12,0Z"/>
      <g>
        <path d="M171.17,109.34c-3.06-8.05-4.59-10.86-6.68-13.44v-.16h23.17v.16c-1.69,2.01-1.93,8.13-.16,13.68l3.14,9.82,5.31-12.31c-2.49-7.16-3.7-9.33-5.47-11.18v-.16h22.77v.16c-1.69,2.01-1.85,7.96-.24,13.68l2.33,8.05,3.22-8.13c2.66-6.52.96-11.91-.97-13.6v-.16h11.26v.16c-2.82,3.14-4.99,5.39-8.29,13.36l-10.86,26.47h-4.02l-8.85-26.15-11.51,26.15h-4.02l-10.14-26.39Z"/>
        <path d="M249.78,93.33c11.34,0,21.08,10.06,21.08,22.13s-9.74,22.21-21.08,22.21-21-10.06-21-22.21,9.66-22.13,21-22.13ZM245.13,115.46c0,10.74,1.46,17.13,4.72,17.13s4.66-6.39,4.66-17.13-1.51-17.06-4.72-17.06-4.66,6.32-4.66,17.06Z"/>
        <path d="M276.89,135.32v-.16c1.13-3.7,2.01-6.52,2.01-13.28v-8.85c0-6.36-.88-9.98-4.26-14v-.16l19.39-4.83v9.33l.08.08c3.3-3.38,7-9.74,14.72-9.01l-2.17,15.37h-.4c-2.25-3.46-6.84-5.95-8.93-5.95-1.13,0-2.17.72-2.98,1.69v16.41c0,6.44.88,9.49,2.01,13.2v.16h-19.47Z"/>
        <path d="M332.33,135.32h-20.28v-.16c1.13-3.7,2.01-6.52,2.01-13.28v-30.25c0-6.36-.88-9.98-4.26-14v-.16l19.71-4.83v41.68l9.5-7.97c4.26-3.62,2.82-8.21,1.21-10.46v-.16h16.09v.16c-6.04,2.25-9.33,5.87-13.2,9.09l-1.69,1.37,10.62,19.79c2.09,3.7,3.14,6.36,5.95,9.01v.16h-18.1l-10.38-20.12v6.76c0,6.44,1.21,9.49,2.82,13.2v.16Z"/>
      </g>
      <g>
        <path class="cls-1" d="M200,24.46c0-4.37-.8-8.13-2.39-11.28-1.6-3.14-3.78-5.67-6.56-7.59-2.78-1.91-5.9-3.32-9.36-4.24-3.46-.91-7.11-1.37-10.93-1.37-7.75,0-14.94,1.46-21.59,4.37l-10.93,35.12c.36-.55,1.3-1.09,2.8-1.64,1.5-.55,3.17-.77,4.99-.68,1.82.09,3.39.68,4.72,1.78,1.32,1.09,1.98,2.96,1.98,5.6v43.19h47.29V24.46Z"/>
        <path class="cls-1" d="M90.11,14.08v6.99c3.96,6.69,6.27,14.55,6.27,22.91s-2.31,16.12-6.27,22.79v20.98h47.29V.04h-47.29v14.04Z"/>
        <path class="cls-1" d="M231.43,0c-3.74,0-7.5.36-11.28,1.09-3.78.73-7.31,1.82-10.59,3.28l-9.57,35.12c.36-.55,1.3-1.09,2.8-1.64,1.5-.55,3.16-.77,4.99-.68,1.82.09,3.39.68,4.72,1.78,1.32,1.09,1.98,2.96,1.98,5.6v43.19h41.62V8.72c-2.66-2.77-5.94-4.86-9.84-6.26-4.6-1.64-9.55-2.46-14.83-2.46Z"/>
        <path class="cls-1" d="M343.71.62c-2.92-.59-6.11-.73-9.57-.41-3.46.32-6.83,1.16-10.11,2.53-3.28,1.37-6.13,3.35-8.54,5.95-2.42,2.6-4.03,5.86-4.85,9.77l-7.24,36.08V0h-47.29v8.72c.47.49.93,1,1.36,1.54,2.87,3.55,4.3,8.29,4.3,14.21v63.28h41.62v-32.73c1.04-1.64,2.94-2.98,5.74-4.03,2.91-1.09,6.29-1.75,10.11-1.98,3.83-.23,7.63.07,11.41.89,3.78.82,6.99,2.32,9.64,4.51l10.39-50.84c-1.73-1.37-4.06-2.35-6.97-2.94Z"/>
        <path class="cls-1" d="M90.11,28.26v-7.2C81.42,8.51,65.96.04,48.82.04,22.55.04,0,19.94,0,43.97s22.55,43.77,48.82,43.77c17.14,0,32.61-8.47,41.29-20.98V28.26ZM48.8,77.71c-7.42,0-10.92-12.5-10.92-33.75s3.23-33.89,10.78-33.89,10.92,12.64,10.92,33.89-3.37,33.75-10.78,33.75Z"/>
      </g>
    </g>
  </g>
</svg>