<?xml version="1.0" encoding="UTF-8"?>
<svg id="Layer_2" data-name="Layer 2" xmlns="http://www.w3.org/2000/svg" viewBox="0 0 182.37 63.09">
  <defs>
    <style>
      .cls-1 {
        fill: #fff;
      }

      .cls-2 {
        fill: #bfd730;
      }
    </style>
  </defs>
  <g id="Layer_1-2" data-name="Layer 1">
    <g>
      <g>
        <path class="cls-1" d="M48.02,5.34c-2.56-1.77-5.54-3.1-8.93-4-3.4-.89-7.05-1.34-10.97-1.34-3.13,0-6.09.28-8.9.84-2.81.57-5.39,1.42-7.71,2.56-2.34,1.15-4.36,2.57-6.09,4.28-1.73,1.71-3.06,3.7-4,5.96-.94,2.27-1.41,4.83-1.41,7.66,0,2.41.33,4.61,1,6.59.67,1.97,1.61,3.74,2.81,5.31,1.21,1.56,2.67,2.93,4.38,4.09,1.7,1.16,3.6,2.13,5.68,2.91,2.08.77,4.33,1.34,6.75,1.72,2.41.37,4.92.56,7.5.56,3.91,0,7.57-.44,10.97-1.31,3.39-.88,6.37-2.2,8.93-3.97,1.43-.99,2.68-2.11,3.76-3.37V8.73c-1.07-1.27-2.33-2.4-3.76-3.38ZM34.27,26.18c-.39,1.31-.91,2.36-1.57,3.14-.66.78-1.38,1.35-2.16,1.71-.78.36-1.56.54-2.34.54-1.67,0-3.23-.78-4.66-2.34-1.44-1.56-2.16-4.19-2.16-7.9,0-1.92.19-3.53.59-4.85.39-1.32.9-2.4,1.53-3.23.63-.84,1.35-1.44,2.15-1.8.81-.36,1.63-.54,2.47-.54s1.65.18,2.42.54c.78.36,1.5.94,2.16,1.75.65.81,1.18,1.89,1.57,3.23.39,1.35.59,2.98.59,4.9s-.2,3.53-.59,4.85Z"/>
        <path class="cls-1" d="M51.78,1.87v6.86c.87,1,1.62,2.09,2.27,3.27,1.46,2.67,2.19,5.77,2.19,9.31s-.73,6.63-2.19,9.27c-.65,1.17-1.4,2.25-2.27,3.25v6.77h21.62V1.87h-21.62ZM100.91,6.53c-.73-1.44-1.73-2.59-3-3.47-1.27-.88-2.7-1.52-4.28-1.94-1.58-.42-3.25-.63-5-.63-3.54,0-6.84.67-9.87,2l-5,16.06c.16-.25.59-.5,1.28-.75.69-.25,1.44-.35,2.28-.31.83.04,1.55.31,2.16.81.6.5.91,1.35.91,2.56v19.74h21.62V11.68c0-2-.37-3.72-1.1-5.15ZM123.15,1.63c-2.1-.75-4.36-1.13-6.78-1.13-1.7,0-3.42.17-5.15.5-1.73.33-3.34.83-4.84,1.5l-4.37,16.06c.16-.25.59-.5,1.28-.75.69-.25,1.44-.35,2.28-.31.83.04,1.55.31,2.15.81.61.5.91,1.35.91,2.56v19.74h18.75V4.21c-1.16-1.14-2.57-2-4.23-2.59Z"/>
        <path class="cls-1" d="M167.43.78c-1.33-.27-2.79-.33-4.38-.19-1.58.15-3.12.53-4.62,1.16-1.5.63-2.8,1.53-3.9,2.72-1.11,1.19-1.84,2.68-2.22,4.47l-3.32,16.5-.06.31s.04-.06.06-.1c.48-.75,1.35-1.36,2.63-1.84,1.33-.5,2.87-.8,4.62-.91,1.75-.11,3.49.03,5.22.4,1.73.37,3.2,1.06,4.4,2.06l4.75-23.24c-.8-.63-1.86-1.07-3.19-1.34ZM127.38,1.87v2.34c.32.3.62.63.9.97,1.31,1.62,1.97,3.79,1.97,6.5v28.93h18.75V1.87h-21.62Z"/>
        <path class="cls-1" d="M170.62,40.61v-9.04h2.7c4.99,0,9.04,4.05,9.04,9.04h0s-11.75,0-11.75,0Z"/>
      </g>
      <g>
        <path class="cls-2" d="M83.61,42.9h6.14l3.71,11.61,2.64-11.61h6.51l2.31,11.74,3.62-11.74h6.14l-6.59,19.77h-6.14l-2.8-11.74-2.76,11.74h-6.14l-6.63-19.77Z"/>
        <path class="cls-2" d="M114.09,52.95c0-6.59,4.53-10.46,10.13-10.46s10.09,3.83,10.09,10.46-4.32,10.13-10.05,10.13-10.17-3.54-10.17-10.13ZM127.8,52.87c0-3.13-1.48-4.7-3.58-4.7-2.22,0-3.58,1.65-3.58,4.7s1.4,4.53,3.58,4.53,3.58-1.52,3.58-4.53Z"/>
        <path class="cls-2" d="M136,42.9h6.51v4.08h.08c.86-2.68,2.59-4.49,5.23-4.49.78,0,1.28.08,1.69.29v6.92c-.91-.54-1.98-.78-2.97-.78-1.94,0-3.67.86-4.04,3.42v10.34h-6.51v-19.77Z"/>
        <path class="cls-2" d="M157.79,54.56v8.11h-6.51v-29.94h6.51v17.59l5.44-7.41h6.84l-6.8,9.27,7.5,10.5h-7.13l-5.85-8.11Z"/>
      </g>
    </g>
  </g>
</svg>