<?xml version="1.0" encoding="UTF-8"?>
<svg id="Layer_2" data-name="Layer 2" xmlns="http://www.w3.org/2000/svg" viewBox="0 0 282.22 97.63">
  <defs>
    <style>
      .cls-1 {
        fill: #0f121e;
      }

      .cls-2 {
        fill: #fff;
      }
    </style>
  </defs>
  <g id="Layer_1-2" data-name="Layer 1">
    <g>
      <g>
        <path class="cls-2" d="M74.31,8.27c-3.96-2.74-8.58-4.8-13.82-6.19-5.26-1.38-10.92-2.08-16.97-2.08-4.84,0-9.43.43-13.78,1.31-4.35.87-8.33,2.19-11.94,3.96-3.61,1.78-6.75,3.98-9.43,6.63-2.68,2.64-4.74,5.72-6.18,9.23-1.45,3.52-2.18,7.47-2.18,11.85,0,3.73.52,7.13,1.55,10.2,1.03,3.06,2.49,5.79,4.35,8.22,1.86,2.41,4.13,4.53,6.77,6.33,2.63,1.8,5.57,3.3,8.8,4.5,3.21,1.19,6.7,2.08,10.44,2.65,3.73.58,7.61.86,11.6.86,6.06,0,11.72-.67,16.97-2.02,5.25-1.36,9.86-3.4,13.82-6.14,2.21-1.53,4.15-3.27,5.82-5.22V13.51c-1.65-1.96-3.6-3.71-5.82-5.24ZM53.03,40.52c-.6,2.03-1.41,3.66-2.42,4.86-1.02,1.2-2.14,2.09-3.34,2.64-1.2.56-2.41.83-3.61.83-2.59,0-4.99-1.2-7.22-3.61-2.23-2.41-3.34-6.48-3.34-12.22,0-2.97.29-5.47.91-7.5.6-2.04,1.39-3.71,2.36-5,.97-1.3,2.09-2.22,3.33-2.78,1.25-.56,2.53-.83,3.82-.83s2.55.27,3.75.83c1.2.56,2.32,1.45,3.34,2.71,1.01,1.25,1.82,2.92,2.42,5s.91,4.6.91,7.58-.31,5.46-.91,7.5Z"/>
        <path class="cls-2" d="M80.12,2.9v10.61c1.35,1.55,2.51,3.23,3.51,5.06,2.27,4.13,3.39,8.93,3.39,14.41s-1.13,10.26-3.39,14.35c-1,1.81-2.16,3.49-3.51,5.04v10.48h33.45V2.9h-33.45ZM156.16,10.1c-1.13-2.22-2.68-4.01-4.64-5.36-1.97-1.36-4.18-2.35-6.63-3-2.44-.64-5.03-.97-7.73-.97-5.48,0-10.58,1.04-15.28,3.1l-7.73,24.85c.25-.39.92-.78,1.98-1.16,1.06-.39,2.23-.55,3.53-.48,1.29.06,2.4.48,3.34,1.25.93.77,1.4,2.1,1.4,3.96v30.55h33.45V18.08c0-3.1-.57-5.75-1.7-7.98ZM190.58,2.52c-3.26-1.16-6.75-1.75-10.49-1.75-2.63,0-5.3.26-7.98.78-2.68.52-5.17,1.29-7.49,2.32l-6.76,24.85c.25-.39.92-.78,1.98-1.16,1.06-.39,2.23-.55,3.53-.48,1.29.06,2.4.48,3.33,1.25.94.77,1.41,2.1,1.41,3.96v30.55h29.02V6.52c-1.8-1.77-3.98-3.1-6.54-4Z"/>
        <path class="cls-2" d="M259.11,1.21c-2.06-.42-4.32-.52-6.77-.3-2.44.23-4.84.82-7.15,1.79-2.32.97-4.33,2.37-6.04,4.2-1.72,1.84-2.86,4.14-3.43,6.91l-5.13,25.54-.09.47c.03-.05.06-.09.09-.15.74-1.16,2.09-2.11,4.07-2.84,2.07-.78,4.45-1.24,7.15-1.4,2.71-.17,5.39.04,8.07.62,2.68.58,4.95,1.64,6.82,3.19l7.35-35.97c-1.23-.97-2.88-1.65-4.93-2.08ZM197.13,2.9v3.62c.5.46.96.97,1.39,1.51,2.02,2.51,3.04,5.87,3.04,10.05v44.77h29.02V2.9h-33.45Z"/>
        <path class="cls-2" d="M264.04,62.85v-13.99h4.18c7.73,0,13.99,6.27,13.99,13.99h0s-18.18,0-18.18,0Z"/>
      </g>
      <g>
        <path class="cls-1" d="M129.39,66.4h9.5l5.74,17.97,4.08-17.97h10.07l3.57,18.16,5.61-18.16h9.5l-10.2,30.59h-9.5l-4.33-18.16-4.27,18.16h-9.5l-10.26-30.59Z"/>
        <path class="cls-1" d="M176.56,81.95c0-10.2,7.01-16.19,15.68-16.19s15.62,5.93,15.62,16.19-6.69,15.68-15.55,15.68-15.74-5.48-15.74-15.68ZM197.78,81.82c0-4.84-2.29-7.27-5.54-7.27-3.44,0-5.54,2.55-5.54,7.27s2.17,7.01,5.54,7.01,5.54-2.36,5.54-7.01Z"/>
        <path class="cls-1" d="M210.47,66.4h10.07v6.31h.13c1.34-4.14,4.02-6.95,8.09-6.95,1.21,0,1.98.13,2.61.45v10.71c-1.4-.83-3.06-1.21-4.59-1.21-2.99,0-5.67,1.34-6.25,5.29v16h-10.07v-30.59Z"/>
        <path class="cls-1" d="M244.18,84.43v12.56h-10.07v-46.34h10.07v27.21l8.41-11.47h10.58l-10.52,14.34,11.6,16.25h-11.03l-9.05-12.56Z"/>
      </g>
    </g>
  </g>
</svg>